<?xml version="1.0" standalone="no"?>
<!DOCTYPE svg PUBLIC "-//W3C//DTD SVG 20010904//EN"
 "http://www.w3.org/TR/2001/REC-SVG-20010904/DTD/svg10.dtd">
<svg version="1.0" xmlns="http://www.w3.org/2000/svg"
 width="192.000000pt" height="192.000000pt" viewBox="0 0 192.000000 192.000000"
 preserveAspectRatio="xMidYMid meet">
<metadata>
Created by potrace 1.11, written by Peter Selinger 2001-2013
</metadata>
<g transform="translate(0.000000,192.000000) scale(0.100000,-0.100000)"
fill="#000000" stroke="none">
<path d="M676 1722 c-3 -5 -24 -7 -48 -5 -35 3 -46 -1 -64 -23 -15 -17 -21
-34 -18 -51 5 -28 28 -56 38 -46 3 4 6 1 6 -6 0 -8 7 -11 15 -7 8 3 22 3 30 0
13 -5 15 -34 15 -174 0 -164 -1 -168 -25 -194 -13 -14 -22 -26 -19 -26 3 0
-15 -20 -38 -44 -54 -55 -108 -115 -173 -191 -27 -32 -64 -73 -82 -92 -18 -18
-30 -33 -27 -33 3 0 -8 -12 -25 -26 -17 -14 -29 -30 -25 -35 3 -5 0 -9 -7 -9
-13 0 -74 -60 -62 -60 5 0 0 -5 -10 -11 -9 -6 -15 -14 -12 -20 4 -5 2 -9 -3
-9 -8 0 -13 -11 -27 -62 -2 -5 -3 -9 -5 -10 -3 -4 -10 -39 -16 -84 -4 -26 -2
-44 5 -48 6 -4 11 -20 11 -37 0 -16 5 -29 11 -29 5 0 7 -5 4 -10 -7 -12 50
-94 89 -127 32 -28 77 -51 130 -67 59 -17 1163 -15 1225 3 48 14 82 30 93 46
4 6 8 7 8 3 0 -4 9 0 19 9 11 9 18 20 15 24 -2 4 4 10 15 14 11 3 26 19 33 35
7 17 16 30 19 30 4 0 14 28 23 62 15 59 17 134 3 168 -3 8 -11 32 -17 52 -11
38 -113 161 -124 151 -3 -4 -6 0 -6 7 0 15 -92 116 -102 112 -5 -1 -7 2 -5 7
3 11 -50 71 -63 71 -6 0 -9 6 -7 13 1 6 -4 11 -10 10 -7 -2 -12 0 -10 5 3 11
-39 62 -47 55 -3 -3 -6 0 -6 8 0 8 -8 21 -17 30 -10 8 -26 26 -36 39 -10 14
-15 18 -12 10 6 -13 -2 -5 -32 35 -4 6 -17 21 -28 34 -18 21 -20 38 -20 188
-1 162 6 196 34 179 17 -11 60 16 70 44 7 22 5 35 -9 58 -17 28 -22 30 -74 29
-31 -1 -56 1 -56 5 0 11 -537 10 -544 0z"/>
</g>
</svg>
